<?xml version="1.0" encoding="UTF-8" standalone="no"?>
<!-- Created with Inkscape (http://www.inkscape.org/) -->

<svg
   xmlns:dc="http://purl.org/dc/elements/1.1/"
   xmlns:cc="http://creativecommons.org/ns#"
   xmlns:rdf="http://www.w3.org/1999/02/22-rdf-syntax-ns#"
   xmlns:svg="http://www.w3.org/2000/svg"
   xmlns="http://www.w3.org/2000/svg"
   xmlns:sodipodi="http://sodipodi.sourceforge.net/DTD/sodipodi-0.dtd"
   xmlns:inkscape="http://www.inkscape.org/namespaces/inkscape"
   width="672.85712"
   height="875.71429"
   id="svg6417"
   version="1.1"
   inkscape:version="0.48.4 r9939"
   inkscape:export-filename="/home/hbenamor/Research/Papers/symmetryGrasping/images/map1.png"
   inkscape:export-xdpi="133.75999"
   inkscape:export-ydpi="133.75999"
   sodipodi:docname="New document 117">
  <defs
     id="defs6419" />
  <sodipodi:namedview
     id="base"
     pagecolor="#ffffff"
     bordercolor="#666666"
     borderopacity="1.0"
     inkscape:pageopacity="0.0"
     inkscape:pageshadow="2"
     inkscape:zoom="0.63745843"
     inkscape:cx="425.66428"
     inkscape:cy="368.1996"
     inkscape:document-units="px"
     inkscape:current-layer="layer1"
     showgrid="false"
     inkscape:window-width="1855"
     inkscape:window-height="1056"
     inkscape:window-x="65"
     inkscape:window-y="24"
     inkscape:window-maximized="1"
     fit-margin-top="0"
     fit-margin-left="0"
     fit-margin-right="0"
     fit-margin-bottom="0" />
  <metadata
     id="metadata6422">
    <rdf:RDF>
      <cc:Work
         rdf:about="">
        <dc:format>image/svg+xml</dc:format>
        <dc:type
           rdf:resource="http://purl.org/dc/dcmitype/StillImage" />
        <dc:title></dc:title>
      </cc:Work>
    </rdf:RDF>
  </metadata>
  <g
     inkscape:label="Layer 1"
     inkscape:groupmode="layer"
     id="layer1"
     transform="translate(-27.142858,-30.933611)">
    <rect
       style="fill:#73bb27;fill-opacity:1;stroke:none"
       id="rect6436"
       width="594.28571"
       height="807.14288"
       x="42.857143"
       y="40.933609" />
    <rect
       style="fill:#d40000;fill-opacity:1;stroke:none"
       id="rect6948"
       width="97.659958"
       height="373.40735"
       x="-403.80084"
       y="474.66916"
       transform="scale(-1,1)" />
    <rect
       style="fill:#d40000;fill-opacity:1;stroke:none"
       id="rect6946"
       width="164.39368"
       height="186.76076"
       x="44.005398"
       y="660.02734"
       ry="0" />
    <g
       id="g6431"
       transform="translate(45.714286,42.857143)">
      <path
         inkscape:connector-curvature="0"
         id="path6425"
         style="fill:none;stroke:#000000;stroke-width:0.79474144pt;stroke-linecap:butt;stroke-linejoin:miter;stroke-opacity:1"
         d="m -0.1282866,-0.1282866 0,812.6187766 M 32.589965,-0.1282866 l 0,812.6187766 m 32.718252,-812.6187766 0,812.6187766 m 32.718252,-812.6187766 0,812.6187766 m 32.718251,-812.6187766 0,812.6187766 m 32.71825,-812.6187766 0,812.6187766 m 32.71826,-812.6187766 0,812.6187766 m 32.71824,-812.6187766 0,812.6187766 m 32.71826,-812.6187766 0,812.6187766 m 32.71825,-812.6187766 0,812.6187766 m 32.71825,-812.6187766 0,812.6187766 m 32.71826,-812.6187766 0,812.6187766 m 32.71824,-812.6187766 0,812.6187766 m 32.71826,-812.6187766 0,812.6187766 m 32.71825,-812.6187766 0,812.6187766 m 32.71825,-812.6187766 0,812.6187766 m 32.71826,-812.6187766 0,812.6187766 m 32.71824,-812.6187766 0,812.6187766 m 32.71826,-812.6187766 0,812.6187766 M -0.1282866,-0.1282866 l 608.6367666,0 M -0.1282866,30.759132 l 608.6367666,0 m -608.6367666,30.887417 608.6367666,0 m -608.6367666,30.887418 608.6367666,0 m -608.6367666,30.887413 608.6367666,0 m -608.6367666,30.88742 608.6367666,0 m -608.6367666,30.88742 608.6367666,0 m -608.6367666,30.88742 608.6367666,0 m -608.6367666,30.88742 608.6367666,0 m -608.6367666,30.88741 608.6367666,0 m -608.6367666,30.88743 608.6367666,0 m -608.6367666,30.88741 608.6367666,0 m -608.6367666,30.88742 608.6367666,0 m -608.6367666,30.88741 608.6367666,0 m -608.6367666,30.88743 608.6367666,0 m -608.6367666,30.88741 608.6367666,0 m -608.6367666,30.88742 608.6367666,0 m -608.6367666,30.88741 608.6367666,0 m -608.6367666,30.88743 608.6367666,0 m -608.6367666,30.88741 608.6367666,0 m -608.6367666,30.88742 608.6367666,0 m -608.6367666,30.88741 608.6367666,0 m -608.6367666,30.88743 608.6367666,0 m -608.6367666,30.88741 608.6367666,0 m -608.6367666,30.88742 608.6367666,0 m -608.6367666,30.88741 608.6367666,0 m -608.6367666,30.88743 608.6367666,0" />
      <rect
         y="-11.923532"
         x="590"
         height="844.28571"
         width="64.285713"
         id="rect6427"
         style="fill:#ffffff;fill-opacity:1;stroke:none" />
      <rect
         y="803.79077"
         x="-18.571428"
         height="60"
         width="657.14288"
         id="rect6429"
         style="fill:#ffffff;fill-opacity:1;stroke:none" />
    </g>
  </g>
</svg>
